<svg width="44" height="53" viewBox="0 0 44 53" fill="none" xmlns="http://www.w3.org/2000/svg">
<path d="M9.5 0.25C12.25 0.25 14.5 2.6125 14.5 5.5C14.5 8.3875 12.25 10.75 9.5 10.75C6.75 10.75 4.5 8.3875 4.5 5.5C4.5 2.6125 6.75 0.25 9.5 0.25ZM32 19.9375C32 22.1162 33.675 23.875 35.75 23.875C37.825 23.875 39.5 22.1162 39.5 19.9375C39.5 17.7588 37.825 16 35.75 16C33.675 16 32 17.7588 32 19.9375ZM39.5 26.5H32.4C30.95 26.5263 29.55 27.34 28.775 28.7575L26.475 32.2225L17.55 16C16.625 14.3462 14.975 13.4012 13.275 13.375H5.75C3 13.375 0.75 15.7375 0.75 18.625V34.375H4.5V52.75H17V25.4762L23.325 37H28.825L30.75 34.1125V52.75H40.75V39.625H43.25V30.4375C43.25 28.285 41.575 26.5 39.5 26.5Z" fill="#404943"/>
</svg>
