<svg width="31" height="27" viewBox="0 0 31 27" fill="none" xmlns="http://www.w3.org/2000/svg">
<path d="M6.74984 17.875C8.354 17.875 9.6665 19.1875 9.6665 20.7917C9.6665 22.3958 8.354 23.7083 6.74984 23.7083C5.14567 23.7083 3.83317 22.3958 3.83317 20.7917C3.83317 19.1875 5.14567 17.875 6.74984 17.875ZM6.74984 14.9583C3.5415 14.9583 0.916504 17.5833 0.916504 20.7917C0.916504 24 3.5415 26.625 6.74984 26.625C9.95817 26.625 12.5832 24 12.5832 20.7917C12.5832 17.5833 9.95817 14.9583 6.74984 14.9583ZM15.4998 3.29167C17.104 3.29167 18.4165 4.60417 18.4165 6.20833C18.4165 7.8125 17.104 9.125 15.4998 9.125C13.8957 9.125 12.5832 7.8125 12.5832 6.20833C12.5832 4.60417 13.8957 3.29167 15.4998 3.29167ZM15.4998 0.375C12.2915 0.375 9.6665 3 9.6665 6.20833C9.6665 9.41667 12.2915 12.0417 15.4998 12.0417C18.7082 12.0417 21.3332 9.41667 21.3332 6.20833C21.3332 3 18.7082 0.375 15.4998 0.375ZM24.2498 17.875C25.854 17.875 27.1665 19.1875 27.1665 20.7917C27.1665 22.3958 25.854 23.7083 24.2498 23.7083C22.6457 23.7083 21.3332 22.3958 21.3332 20.7917C21.3332 19.1875 22.6457 17.875 24.2498 17.875ZM24.2498 14.9583C21.0415 14.9583 18.4165 17.5833 18.4165 20.7917C18.4165 24 21.0415 26.625 24.2498 26.625C27.4582 26.625 30.0832 24 30.0832 20.7917C30.0832 17.5833 27.4582 14.9583 24.2498 14.9583Z" fill="white"/>
</svg>
