<svg width="27" height="27" viewBox="0 0 27 27" fill="none" xmlns="http://www.w3.org/2000/svg">
<path d="M23.7083 0.375H3.27708C1.65833 0.375 0.389583 1.6875 0.389583 3.29167L0.375 23.7083C0.375 25.3125 1.65833 26.625 3.27708 26.625H23.7083C25.3125 26.625 26.625 25.3125 26.625 23.7083V3.29167C26.625 1.6875 25.3125 0.375 23.7083 0.375ZM23.7083 17.875H17.875C17.875 20.2958 15.9062 22.25 13.5 22.25C11.0938 22.25 9.125 20.2958 9.125 17.875H3.27708V3.29167H23.7083V17.875ZM19.3333 10.5833H16.4167V6.20833H10.5833V10.5833H7.66667L13.5 16.4167L19.3333 10.5833Z" fill="white"/>
</svg>
