<svg width="35" height="36" viewBox="0 0 35 36" fill="none" xmlns="http://www.w3.org/2000/svg">
<path d="M17.5 0.5C8.06996 0.5 0.416626 8.34 0.416626 18C0.416626 27.66 8.06996 35.5 17.5 35.5C26.93 35.5 34.5833 27.66 34.5833 18C34.5833 8.34 26.93 0.5 17.5 0.5ZM17.5 32C9.96621 32 3.83329 25.7175 3.83329 18C3.83329 10.2825 9.96621 4 17.5 4C25.0337 4 31.1666 10.2825 31.1666 18C31.1666 25.7175 25.0337 32 17.5 32ZM19.0204 16.425C15.9795 15.3925 14.5104 14.745 14.5104 13.1C14.5104 11.315 16.4066 10.6675 17.6025 10.6675C19.8404 10.6675 20.6604 12.4 20.8483 13.0125L23.5475 11.84C23.2912 11.07 22.1466 8.4975 19.0033 7.9375V5.75H16.0137V7.955C11.572 8.935 11.5379 12.9425 11.5379 13.135C11.5379 17.1075 15.3816 18.2275 17.2608 18.9275C19.96 19.9075 21.1558 20.8 21.1558 22.48C21.1558 24.4575 19.362 25.2975 17.7733 25.2975C14.6641 25.2975 13.7758 22.025 13.6733 21.64L10.8375 22.8125C11.9137 26.645 14.7325 27.6775 15.9966 27.9925V30.25H18.9862V28.08C19.8745 27.9225 24.1454 27.0475 24.1454 22.445C24.1625 20.0125 23.1204 17.8775 19.0204 16.425Z" fill="white"/>
</svg>
