<svg width="40" height="35" viewBox="0 0 40 35" fill="none" xmlns="http://www.w3.org/2000/svg">
<path d="M36 7.64582H30V4.06249C30 2.07374 28.22 0.479156 26 0.479156H14C11.78 0.479156 10 2.07374 10 4.06249V7.64582H4C1.78 7.64582 0 9.24041 0 11.2292V30.9375C0 32.9262 1.78 34.5208 4 34.5208H36C38.22 34.5208 40 32.9262 40 30.9375V11.2292C40 9.24041 38.22 7.64582 36 7.64582ZM14 4.06249H26V7.64582H14V4.06249ZM36 30.9375H4V27.3542H36V30.9375ZM36 21.9792H4V11.2292H10V14.8125H14V11.2292H26V14.8125H30V11.2292H36V21.9792Z" fill="white"/>
</svg>
