<svg width="37" height="38" viewBox="0 0 37 38" fill="none" xmlns="http://www.w3.org/2000/svg">
<path d="M8.71125 9.6375L12.9137 2.4975C13.58 1.36 15.1858 1.36 15.8521 2.4975L18.3804 6.8025L16.2792 10.4075L14.5708 13.2425L8.71125 9.6375ZM35.9592 19.8225L33.2258 15.1675L27.315 18.6675L31.0904 25.125H33.0208C34.3192 25.125 35.4979 24.3725 36.0788 23.1825C36.3179 22.6925 36.4375 22.1675 36.4375 21.625C36.4375 20.995 36.2667 20.3825 35.9592 19.8225ZM26.1875 33.875H28.75C30.0483 33.875 31.2271 33.1225 31.8079 31.9325L34.285 26.875H26.1875V23.375L19.3542 30.375L26.1875 37.375V33.875ZM15.9375 26.875H8.59167L7.15667 29.3425C6.64417 30.2175 6.61 31.3025 7.05417 32.23C7.5325 33.2275 8.54042 33.875 9.65083 33.875H15.9375V26.875ZM9.30917 22.2375L12.2646 24.0575L9.92417 14.45L0.5625 16.8475L3.46667 18.6325L2.76625 19.84C2.16833 20.8725 2.11708 22.1325 2.64667 23.2L5.43125 28.905L9.30917 22.2375ZM27.93 6.12L25.7092 2.3225C25.0771 1.2725 23.9667 0.625 22.7708 0.625H16.7404L22.0704 9.725L19.1321 11.5275L28.5108 13.925L30.8512 4.3175L27.93 6.12Z" fill="#404943"/>
</svg>
