<svg width="64" height="64" viewBox="0 0 84 79" fill="none" xmlns="http://www.w3.org/2000/svg">
<path fill-rule="evenodd" clip-rule="evenodd" d="M45.6701 30.2094L42.8556 34.3179L41.9152 35.7014L39.5996 39.0826L38.1966 41.1269L34.4055 46.6588L30.141 52.898L26.352 58.441H59.4017L55.6106 52.898H36.655L36.7339 52.7849L36.8256 52.6519L36.9279 52.5033L37.0409 52.3348L37.1667 52.153L37.5932 51.5145L37.7574 51.275L37.9322 51.0222L38.1135 50.7562L38.3032 50.479L38.5015 50.1886L38.7147 49.8915L38.928 49.5833L39.1412 49.2662L39.3544 48.9381L39.5826 48.6055L39.8171 48.264L40.0559 47.9159L40.2969 47.5634L40.5442 47.2042L40.7937 46.8384L40.9173 46.6588L44.7085 41.1269L44.8663 40.9052L45.1179 40.5504L45.3503 40.2112L45.5784 39.8786L45.7916 39.5549L46.0049 39.2379L46.1115 39.0826L46.184 38.9984L46.2543 38.8986L46.572 38.433L46.8237 38.0672L47.2309 37.473L47.4079 37.2158L47.5977 36.9386L47.8109 36.6393L48.0241 36.3267L48.1755 36.105L48.2181 36.0429L48.3162 35.8943L48.3845 35.7968L48.4506 35.7014H59.6L63.3912 30.1584H45.6936L45.6701 30.2094ZM42.5293 25.2607H58.3377C59.5459 25.26 60.737 25.558 61.8126 26.1301C62.8883 26.7023 63.8177 27.5322 64.5241 28.5514C65.2306 29.5706 65.6939 30.7499 65.8758 31.9919C66.0577 33.2339 65.953 34.5031 65.5703 35.6948C65.1395 37.03 64.3767 38.2229 63.3592 39.1524C62.3417 40.0819 61.1058 40.7149 59.777 40.9872L59.6043 41.0205C59.1866 41.0944 58.7636 41.1308 58.3399 41.1291H53.1479L53.7577 42.016L56.4187 45.8872L56.9433 46.6521L57.5531 47.539L61.2184 52.8891L65.0095 58.421H71.5427L67.7516 52.8891L62.8858 45.7941C65.638 44.7144 67.9548 42.6927 69.4549 40.0616C70.955 37.4305 71.5491 34.3467 71.1393 31.3178C70.7296 28.2888 69.3405 25.4952 67.2005 23.3965C65.0606 21.2978 62.2973 20.0191 59.3655 19.7709C59.0286 19.7443 58.6917 19.7288 58.3505 19.7288H26.335L30.1239 25.2717L33.4844 30.174L37.1497 35.5418L38.5314 33.5264L39.4781 32.1428L40.4291 30.7571L36.655 25.2717L42.5293 25.2607Z" fill="#0D4D00"/>
<path d="M11.3979 43.2752C6.54702 25.9412 19.3767 6.79792 40.053 0.554299C40.714 0.354751 41.3771 0.170724 42.0381 0C39.562 0.321538 37.1143 0.847189 34.7182 1.57199C14.5834 7.65375 2.0949 26.2826 6.82208 43.1799C10.3296 55.7247 22.3405 63.7998 36.537 64.6223C24.3683 62.3032 14.545 54.543 11.3979 43.2752Z" fill="#0D4D00"/>
<path d="M52.7613 71.8215C30.6905 78.5285 8.60045 68.8615 3.42337 50.2349C1.4148 43.0068 2.24637 35.495 5.30614 28.6128C0.425442 36.6124 -1.35711 45.8515 1.09283 54.6626C6.27204 73.287 28.3599 82.9607 50.4329 76.2536C63.9427 72.1518 74.3139 62.864 79.1371 52.0064C73.6935 60.9173 64.3926 68.2895 52.7613 71.8215Z" fill="#0D4D00"/>
<path d="M41.1509 10.0174C58.0553 4.91784 74.9704 10.1061 83.0473 21.7508C77.6975 6.87341 59.275 -0.638445 40.8631 4.92228C25.4875 9.56508 14.8029 21.9082 13.5342 34.9098C17.4319 23.8239 27.5856 14.117 41.1595 10.0174" fill="#0D4D00"/>
<path d="M11.3979 43.2752C6.54702 25.9412 19.3767 6.79792 40.053 0.554299C40.714 0.354751 41.3771 0.170724 42.0381 0C39.562 0.321538 37.1143 0.847189 34.7182 1.57199C14.5834 7.65375 2.0949 26.2826 6.82208 43.1799C10.3296 55.7247 22.3405 63.7998 36.537 64.6223C24.3683 62.3032 14.545 54.543 11.3979 43.2752Z" fill="#0D4D00"/>
<path d="M52.7613 71.8215C30.6905 78.5285 8.60045 68.8615 3.42337 50.2349C1.4148 43.0068 2.24637 35.495 5.30614 28.6128C0.425442 36.6124 -1.35711 45.8515 1.09283 54.6626C6.27204 73.287 28.3599 82.9607 50.4329 76.2536C63.9427 72.1518 74.3139 62.864 79.1371 52.0064C73.6935 60.9173 64.3926 68.2895 52.7613 71.8215Z" fill="#0D4D00"/>
<path d="M41.1509 10.0174C58.0553 4.91784 74.9704 10.1061 83.0473 21.7508C77.6975 6.87341 59.275 -0.638445 40.8631 4.92228C25.4875 9.56508 14.8029 21.9082 13.5342 34.9098C17.4319 23.8239 27.5856 14.117 41.1595 10.0174" fill="#0D4D00"/>
</svg>
