<svg width="37" height="36" viewBox="0 0 37 36" fill="none" xmlns="http://www.w3.org/2000/svg">
<path d="M26.1875 19.3125C31.4663 14.395 36.4375 9.7925 36.4375 5.8375C36.4375 2.6 33.9604 0.0625 30.8 0.0625C29.0233 0.0625 27.2979 0.92 26.1875 2.25C25.06 0.92 23.3517 0.0625 21.575 0.0625C18.4146 0.0625 15.9375 2.6 15.9375 5.8375C15.9375 9.7925 20.9088 14.395 26.1875 19.3125ZM21.575 3.5625C22.3267 3.5625 23.0954 3.93 23.5908 4.525L26.1875 7.6575L28.7842 4.525C29.2796 3.93 30.0483 3.5625 30.8 3.5625C32.0642 3.5625 33.0208 4.5425 33.0208 5.8375C33.0208 7.7975 29.5358 11.385 26.1875 14.57C22.8392 11.385 19.3542 7.78 19.3542 5.8375C19.3542 4.5425 20.3108 3.5625 21.575 3.5625Z" fill="white"/>
<path d="M31.3125 24.5625H27.8958C27.8958 22.4625 26.6146 20.5725 24.7013 19.8375L14.1779 15.8125H0.5625V35.0625H10.8125V32.5425L22.7708 35.9375L36.4375 31.5625V29.8125C36.4375 26.9075 34.1483 24.5625 31.3125 24.5625ZM3.97917 31.5625V19.3125H7.39583V31.5625H3.97917ZM22.7196 32.28L10.8125 28.9025V19.3125H13.5629L23.5054 23.11C24.0863 23.3375 24.4792 23.915 24.4792 24.5625C24.4792 24.5625 21.0796 24.475 20.55 24.3L16.4842 22.9175L15.4079 26.2425L19.4737 27.625C20.345 27.9225 21.2504 28.08 22.1729 28.08H31.3125C31.9788 28.08 32.5767 28.4825 32.85 29.06L22.7196 32.28Z" fill="white"/>
</svg>
