<svg width="31" height="27" viewBox="0 0 31 27" fill="none" xmlns="http://www.w3.org/2000/svg">
<path d="M17.6875 0.375C10.4396 0.375 4.5625 6.25208 4.5625 13.5H0.1875L5.86042 19.1729L5.9625 19.3771L11.8542 13.5H7.47917C7.47917 7.85625 12.0438 3.29167 17.6875 3.29167C23.3313 3.29167 27.8958 7.85625 27.8958 13.5C27.8958 19.1438 23.3313 23.7083 17.6875 23.7083C14.8729 23.7083 12.3208 22.5563 10.4833 20.7042L8.4125 22.775C10.7896 25.1521 14.0563 26.625 17.6875 26.625C24.9354 26.625 30.8125 20.7479 30.8125 13.5C30.8125 6.25208 24.9354 0.375 17.6875 0.375ZM16.2292 7.66667V14.9583L22.4271 18.6333L23.55 16.7667L18.4167 13.7188V7.66667H16.2292Z" fill="#0D4D00"/>
</svg>
