<svg width="25" height="36" viewBox="0 0 25 36" fill="none" xmlns="http://www.w3.org/2000/svg">
<path d="M7.37508 33.75C7.37508 34.7125 8.14383 35.5 9.08341 35.5H15.9167C16.8563 35.5 17.6251 34.7125 17.6251 33.75V32H7.37508V33.75ZM12.5001 0.5C5.90591 0.5 0.541748 5.995 0.541748 12.75C0.541748 16.915 2.57466 20.5725 5.66675 22.795V26.75C5.66675 27.7125 6.4355 28.5 7.37508 28.5H17.6251C18.5647 28.5 19.3334 27.7125 19.3334 26.75V22.795C22.4255 20.5725 24.4584 16.915 24.4584 12.75C24.4584 5.995 19.0942 0.5 12.5001 0.5ZM17.3688 19.925L15.9167 20.975V25H9.08341V20.975L7.63133 19.925C5.32508 18.28 3.95841 15.6025 3.95841 12.75C3.95841 7.92 7.78508 4 12.5001 4C17.2151 4 21.0417 7.92 21.0417 12.75C21.0417 15.6025 19.6751 18.28 17.3688 19.925Z" fill="#404943"/>
</svg>
