<svg width="25" height="36" viewBox="0 0 25 36" fill="none" xmlns="http://www.w3.org/2000/svg">
<path d="M7.37496 33.75C7.37496 34.7125 8.14371 35.5 9.08329 35.5H15.9166C16.8562 35.5 17.625 34.7125 17.625 33.75V32H7.37496V33.75ZM12.5 0.5C5.90579 0.5 0.541626 5.995 0.541626 12.75C0.541626 16.915 2.57454 20.5725 5.66663 22.795V26.75C5.66663 27.7125 6.43538 28.5 7.37496 28.5H17.625C18.5645 28.5 19.3333 27.7125 19.3333 26.75V22.795C22.4254 20.5725 24.4583 16.915 24.4583 12.75C24.4583 5.995 19.0941 0.5 12.5 0.5ZM17.3687 19.925L15.9166 20.975V25H9.08329V20.975L7.63121 19.925C5.32496 18.28 3.95829 15.6025 3.95829 12.75C3.95829 7.92 7.78496 4 12.5 4C17.215 4 21.0416 7.92 21.0416 12.75C21.0416 15.6025 19.675 18.28 17.3687 19.925Z" fill="white"/>
</svg>
