<svg width="64" height="124" viewBox="0 0 64 124" fill="none" xmlns="http://www.w3.org/2000/svg">
<path d="M51.1689 102.719L61.4053 102.699L61.6977 92.4667L36.1424 92.5164L37.8946 31.1942L63.4499 31.1445L63.7423 20.9122L53.5058 20.9321L53.7982 10.6998L38.4793 10.7296L38.7717 0.497349L28.5353 0.517253L28.2429 10.7495L12.924 10.7793L12.6316 21.0116L2.39519 21.0315L2.10281 31.2638L27.6581 31.2141L25.9059 92.5363L0.350625 92.586L0.0582497 102.818L10.2947 102.798L10.0023 113.031L25.3212 113.001L25.0288 123.233L35.2653 123.213L35.5576 112.981L50.8765 112.951L51.1689 102.719Z" fill="#006D44"/>
</svg>
