<svg width="40" height="30" viewBox="0 0 40 30" fill="none" xmlns="http://www.w3.org/2000/svg">
<path d="M35 8.33333V6.66667L30 10L25 6.66667V8.33333L30 11.6667L35 8.33333ZM36.6667 0H3.33333C1.5 0 0 1.5 0 3.33333V26.6667C0 28.5 1.5 30 3.33333 30H36.6667C38.5 30 39.9833 28.5 39.9833 26.6667L40 3.33333C40 1.5 38.5 0 36.6667 0ZM13.3333 5C16.1 5 18.3333 7.23333 18.3333 10C18.3333 12.7667 16.1 15 13.3333 15C10.5667 15 8.33333 12.7667 8.33333 10C8.33333 7.23333 10.5667 5 13.3333 5ZM23.3333 25H3.33333V23.3333C3.33333 20 10 18.1667 13.3333 18.1667C16.6667 18.1667 23.3333 20 23.3333 23.3333V25ZM36.6667 15H23.3333V5H36.6667V15Z" fill="#0D4D00"/>
</svg>
