<svg width="25" height="29" viewBox="0 0 25 29" fill="none" xmlns="http://www.w3.org/2000/svg">
<path d="M12.5002 28.7188C14.1043 28.7188 15.4168 27.4062 15.4168 25.8021H9.5835C9.5835 27.4062 10.896 28.7188 12.5002 28.7188ZM21.2502 19.9688V12.6771C21.2502 8.2 18.8731 4.45208 14.6877 3.46042V2.46875C14.6877 1.25833 13.7106 0.28125 12.5002 0.28125C11.2897 0.28125 10.3127 1.25833 10.3127 2.46875V3.46042C6.14183 4.45208 3.75016 8.18542 3.75016 12.6771V19.9688L0.833496 22.8854V24.3438H24.1668V22.8854L21.2502 19.9688ZM18.3335 21.4271H6.66683V12.6771C6.66683 9.06042 8.86891 6.11458 12.5002 6.11458C16.1314 6.11458 18.3335 9.06042 18.3335 12.6771V21.4271Z" fill="white"/>
</svg>
