<svg width="30" height="34" viewBox="0 0 30 34" fill="none" xmlns="http://www.w3.org/2000/svg">
<path d="M27.5 27.7333L2.95001 2.4L0.833344 4.51667L5.50001 9.18333V9.2C4.63334 10.85 4.16668 12.8 4.16668 14.9V23.2333L0.833344 26.5667V28.2333H23.7167L27.05 31.5667L29.1667 29.45L27.5 27.7333ZM14.1667 33.25C16.0167 33.25 17.5 31.7667 17.5 29.9167H10.8333C10.8333 31.7667 12.3167 33.25 14.1667 33.25ZM24.1667 21.05V14.9167C24.1667 9.78333 21.4333 5.51667 16.6667 4.38333V3.25C16.6667 1.86667 15.55 0.75 14.1667 0.75C12.7833 0.75 11.6667 1.86667 11.6667 3.25V4.38333C11.4167 4.43333 11.1833 4.51667 10.9667 4.58333C10.8 4.63333 10.6333 4.7 10.4667 4.76667H10.45C10.4333 4.76667 10.4333 4.76667 10.4167 4.78333C10.0333 4.93333 9.65001 5.11667 9.28334 5.3C9.28334 5.3 9.26668 5.3 9.26668 5.31667L24.1667 21.05Z" fill="#0D4D00"/>
</svg>
