<svg width="12" height="14" viewBox="0 0 12 14" fill="none" xmlns="http://www.w3.org/2000/svg">
<path d="M5.99984 13.5C6.73317 13.5 7.33317 12.9 7.33317 12.1667H4.6665C4.6665 12.9 5.2665 13.5 5.99984 13.5ZM9.99984 9.5V6.16667C9.99984 4.12 8.91317 2.40667 6.99984 1.95333V1.5C6.99984 0.946667 6.55317 0.5 5.99984 0.5C5.4465 0.5 4.99984 0.946667 4.99984 1.5V1.95333C3.09317 2.40667 1.99984 4.11333 1.99984 6.16667V9.5L0.666504 10.8333V11.5H11.3332V10.8333L9.99984 9.5ZM8.6665 10.1667H3.33317V6.16667C3.33317 4.51333 4.33984 3.16667 5.99984 3.16667C7.65984 3.16667 8.6665 4.51333 8.6665 6.16667V10.1667Z" fill="#0D4D00"/>
</svg>
