<svg width="31" height="28" viewBox="0 0 31 28" fill="none" xmlns="http://www.w3.org/2000/svg">
<path d="M27.1665 5.97982H23.9873C24.1478 5.52773 24.2498 5.0319 24.2498 4.52148C24.2498 2.10065 22.2957 0.146484 19.8748 0.146484C18.3436 0.146484 17.0165 0.933984 16.229 2.11523L15.4998 3.09232L14.7707 2.10065C13.9832 0.933984 12.6561 0.146484 11.1248 0.146484C8.704 0.146484 6.74984 2.10065 6.74984 4.52148C6.74984 5.0319 6.85192 5.52773 7.01234 5.97982H3.83317C2.21442 5.97982 0.931087 7.27773 0.931087 8.89648L0.916504 24.9381C0.916504 26.5569 2.21442 27.8548 3.83317 27.8548H27.1665C28.7853 27.8548 30.0832 26.5569 30.0832 24.9381V8.89648C30.0832 7.27773 28.7853 5.97982 27.1665 5.97982ZM19.8748 3.06315C20.6769 3.06315 21.3332 3.7194 21.3332 4.52148C21.3332 5.32357 20.6769 5.97982 19.8748 5.97982C19.0728 5.97982 18.4165 5.32357 18.4165 4.52148C18.4165 3.7194 19.0728 3.06315 19.8748 3.06315ZM11.1248 3.06315C11.9269 3.06315 12.5832 3.7194 12.5832 4.52148C12.5832 5.32357 11.9269 5.97982 11.1248 5.97982C10.3228 5.97982 9.6665 5.32357 9.6665 4.52148C9.6665 3.7194 10.3228 3.06315 11.1248 3.06315ZM27.1665 24.9381H3.83317V22.0215H27.1665V24.9381ZM27.1665 17.6465H3.83317V8.89648H11.2415L8.20817 13.0236L10.5707 14.7298L15.4998 8.02148L20.429 14.7298L22.7915 13.0236L19.7582 8.89648H27.1665V17.6465Z" fill="#0D4D00"/>
</svg>
