<svg width="89" height="111" viewBox="0 0 89 111" fill="none" xmlns="http://www.w3.org/2000/svg">
<path d="M78.625 10.1251H58.2475C56.2 4.27675 50.8375 0.041748 44.5 0.041748C38.1625 0.041748 32.8 4.27675 30.7525 10.1251H10.375C5.0125 10.1251 0.625 14.6626 0.625 20.2084V100.875C0.625 106.421 5.0125 110.958 10.375 110.958H78.625C83.9875 110.958 88.375 106.421 88.375 100.875V20.2084C88.375 14.6626 83.9875 10.1251 78.625 10.1251ZM44.5 10.1251C47.1813 10.1251 49.375 12.3938 49.375 15.1667C49.375 17.9397 47.1813 20.2084 44.5 20.2084C41.8187 20.2084 39.625 17.9397 39.625 15.1667C39.625 12.3938 41.8187 10.1251 44.5 10.1251ZM78.625 100.875H10.375V20.2084H20.125V35.3334H68.875V20.2084H78.625V100.875Z" fill="#006D44"/>
</svg>
