<svg width="99" height="101" viewBox="0 0 99 101" fill="none" xmlns="http://www.w3.org/2000/svg">
<path d="M10.8412 55.5417H0.993652C1.96865 65.6755 5.86865 74.9017 11.7674 82.4138L18.7387 75.2042C14.5462 69.6079 11.7187 62.9025 10.8412 55.5417Z" fill="#006D44"/>
<path d="M18.7387 25.7959L11.7674 18.5863C5.86865 26.0984 1.96865 35.3246 0.993652 45.4584H10.8412C11.7187 38.0975 14.5462 31.3921 18.7387 25.7959Z" fill="#006D44"/>
<path d="M44.6249 10.5196V0.335449C34.8262 1.34378 25.9049 5.37712 18.6412 11.4775L25.6124 18.6871C31.0237 14.3513 37.5074 11.4271 44.6249 10.5196Z" fill="#006D44"/>
<path d="M80.3587 11.4775C73.0949 5.37712 64.1737 1.34378 54.3749 0.335449V10.5196C61.4924 11.4271 67.9762 14.3513 73.3874 18.6871L80.3587 11.4775Z" fill="#006D44"/>
<path d="M80.2612 75.2042L87.2324 82.4138C93.1312 74.9521 97.0312 65.6755 98.0062 55.5417H88.1587C87.2812 62.9025 84.4537 69.6079 80.2612 75.2042Z" fill="#006D44"/>
<path d="M88.1587 45.4584H98.0062C97.0312 35.3246 93.1312 26.0984 87.2324 18.5863L80.2612 25.7959C84.4537 31.3921 87.2812 38.0975 88.1587 45.4584Z" fill="#006D44"/>
<path d="M54.3749 90.4805V100.665C64.1737 99.6563 73.0949 95.623 80.3587 89.5225L73.3874 82.313C67.9762 86.6488 61.4924 89.573 54.3749 90.4805Z" fill="#006D44"/>
<path d="M18.6412 89.5225C25.8562 95.623 34.8262 99.6563 44.6249 100.665V90.4805C37.5074 89.573 31.0237 86.6488 25.6124 82.313L18.6412 89.5225Z" fill="#006D44"/>
<path d="M49.4999 75.7084C62.9618 75.7084 73.8749 64.4222 73.8749 50.5C73.8749 36.5779 62.9618 25.2917 49.4999 25.2917C36.038 25.2917 25.1249 36.5779 25.1249 50.5C25.1249 64.4222 36.038 75.7084 49.4999 75.7084Z" fill="#006D44"/>
</svg>
