<svg width="35" height="36" viewBox="0 0 35 36" fill="none" xmlns="http://www.w3.org/2000/svg">
<path d="M17.5001 0.5C8.07008 0.5 0.416748 8.34 0.416748 18C0.416748 27.66 8.07008 35.5 17.5001 35.5C26.9301 35.5 34.5834 27.66 34.5834 18C34.5834 8.34 26.9301 0.5 17.5001 0.5ZM17.5001 32C9.96633 32 3.83341 25.7175 3.83341 18C3.83341 10.2825 9.96633 4 17.5001 4C25.0338 4 31.1667 10.2825 31.1667 18C31.1667 25.7175 25.0338 32 17.5001 32ZM19.0205 16.425C15.9797 15.3925 14.5105 14.745 14.5105 13.1C14.5105 11.315 16.4067 10.6675 17.6026 10.6675C19.8405 10.6675 20.6605 12.4 20.8484 13.0125L23.5476 11.84C23.2913 11.07 22.1467 8.4975 19.0034 7.9375V5.75H16.0138V7.955C11.5722 8.935 11.538 12.9425 11.538 13.135C11.538 17.1075 15.3817 18.2275 17.2609 18.9275C19.9601 19.9075 21.1559 20.8 21.1559 22.48C21.1559 24.4575 19.3622 25.2975 17.7734 25.2975C14.6642 25.2975 13.7759 22.025 13.6734 21.64L10.8376 22.8125C11.9138 26.645 14.7326 27.6775 15.9967 27.9925V30.25H18.9863V28.08C19.8747 27.9225 24.1455 27.0475 24.1455 22.445C24.1626 20.0125 23.1205 17.8775 19.0205 16.425Z" fill="#404943"/>
</svg>
