<svg width="94" height="112" viewBox="0 0 94 112" fill="none" xmlns="http://www.w3.org/2000/svg">
<path d="M84.3335 0.14624H9.66683C5.00016 0.14624 0.333496 5.16203 0.333496 11.2924V28.0675C0.333496 32.0801 2.34016 35.5354 5.00016 37.486V100.462C5.00016 106.592 10.1335 111.608 14.3335 111.608H79.6668C83.8668 111.608 89.0002 106.592 89.0002 100.462V37.486C91.6602 35.5354 93.6668 32.0801 93.6668 28.0675V11.2924C93.6668 5.16203 89.0002 0.14624 84.3335 0.14624ZM79.6668 100.462H14.3335V39.1579H79.6668V100.462ZM84.3335 28.0117H9.66683V11.2924H84.3335V28.0117Z" fill="#006D44"/>
<path d="M61.0002 55.8772H33.0002V67.0234H61.0002V55.8772Z" fill="#006D44"/>
</svg>
