<svg width="54" height="47" viewBox="0 0 54 47" fill="none" xmlns="http://www.w3.org/2000/svg">
<path d="M22.4922 42.953H22.6765C23.0398 42.953 23.4083 42.9172 23.787 42.8865C25.4394 42.7665 27.0801 42.5201 28.6949 42.1496V46.1003C27.0312 46.5167 25.3341 46.7855 23.6233 46.9037C22.9733 46.9549 22.2875 46.9856 21.5762 47.001H20.9825C13.6165 46.9459 6.3894 44.9911 0 41.3257V2.12558C3.25225 3.88055 6.71141 5.22153 10.2968 6.11723C13.1319 6.83668 16.0302 7.27887 18.9508 7.43755H19.0634C19.5752 7.43755 20.0409 7.47849 20.5424 7.4836V11.5009C16.7533 11.4454 12.9842 10.9403 9.3142 9.9963C7.95801 9.65343 6.64276 9.26962 5.4094 8.84486L4.01739 8.36893V38.9511L4.61615 39.2377C9.19096 41.3938 14.1372 42.6515 19.1862 42.9428H19.309C19.8669 42.9735 20.4298 42.9889 20.9825 42.9889H21.5864H21.612C21.9037 42.9786 22.2005 42.9735 22.4922 42.953Z" fill="url(#paint0_linear_854_52297)"/>
<path d="M32.3896 38.8126C31.4633 38.8126 30.5524 38.8485 29.6721 38.915C28.6025 38.9917 27.538 39.1197 26.5145 39.2886C25.885 39.396 25.2709 39.5189 24.6772 39.657V0.90728C27.2 0.283749 29.791 -0.0205612 32.3896 0.0014801C35.8194 0.0154877 39.2346 0.450314 42.5585 1.29621C46.3483 2.23941 49.9867 3.71059 53.367 5.66656V44.1758C50.1159 42.4236 46.6585 41.0843 43.0753 40.1892C39.5835 39.2931 35.9945 38.8308 32.3896 38.8126ZM47.9627 38.1422L49.3547 38.6079V8.05132L48.7509 7.76474C46.4524 6.6786 44.0526 5.82155 41.5861 5.20598C38.5843 4.43564 35.4989 4.03859 32.3998 4.02384C31.4735 4.02384 30.5523 4.06478 29.6619 4.14154L28.6998 4.22342V7.91314V35.6551L29.8205 35.5835C30.6342 35.5323 31.4786 35.5067 32.3794 35.5067C36.3134 35.5186 40.2309 36.0171 44.0426 36.9908C45.3681 37.3234 46.6833 37.7124 47.9627 38.1422Z" fill="url(#paint1_linear_854_52297)"/>
<defs>
<linearGradient id="paint0_linear_854_52297" x1="0" y1="24.5658" x2="28.6949" y2="24.5658" gradientUnits="userSpaceOnUse">
<stop stop-color="#A57D24"/>
<stop offset="0.21" stop-color="#D8BE62"/>
<stop offset="0.33" stop-color="#F1DD80"/>
<stop offset="0.52" stop-color="#FBF2A8"/>
<stop offset="0.73" stop-color="#F1DD80"/>
<stop offset="1" stop-color="#A57D24"/>
</linearGradient>
<linearGradient id="paint1_linear_854_52297" x1="24.6772" y1="22.0886" x2="53.367" y2="22.0886" gradientUnits="userSpaceOnUse">
<stop stop-color="#A57D24"/>
<stop offset="0.21" stop-color="#D8BE62"/>
<stop offset="0.33" stop-color="#F1DD80"/>
<stop offset="0.52" stop-color="#FBF2A8"/>
<stop offset="0.73" stop-color="#F1DD80"/>
<stop offset="1" stop-color="#A57D24"/>
</linearGradient>
</defs>
</svg>
