<svg width="27" height="28" viewBox="0 0 27 28" fill="none" xmlns="http://www.w3.org/2000/svg">
<path d="M19.3247 17.3328H18.1313L17.7084 16.9249C19.1887 15.2029 20.0799 12.9673 20.0799 10.5353C20.0799 5.11248 15.6843 0.716797 10.2614 0.716797C4.83855 0.716797 0.442871 5.11248 0.442871 10.5353C0.442871 15.9582 4.83855 20.3539 10.2614 20.3539C12.6934 20.3539 14.929 19.4626 16.651 17.9823L17.0588 18.4053V19.5986L24.6116 27.1362L26.8623 24.8855L19.3247 17.3328ZM10.2614 17.3328C6.50015 17.3328 3.46396 14.2966 3.46396 10.5353C3.46396 6.77408 6.50015 3.73788 10.2614 3.73788C14.0227 3.73788 17.0588 6.77408 17.0588 10.5353C17.0588 14.2966 14.0227 17.3328 10.2614 17.3328Z" fill="#005232"/>
</svg>
