<svg width="39" height="40" viewBox="0 0 39 40" fill="none" xmlns="http://www.w3.org/2000/svg">
<path d="M37.7036 32.2318L22.192 16.3418C23.7807 12.2468 22.9607 7.41678 19.732 4.09178C15.8028 0.0667784 9.68696 -0.300722 5.33071 2.95428L11.8907 9.69178L9.46488 12.1593L2.92196 5.45678C-0.255538 9.90178 0.103212 16.1843 4.03238 20.1918C7.20988 23.4468 11.8395 24.3043 15.8028 22.7818L31.3657 38.7243C32.032 39.4068 33.1082 39.4068 33.7745 38.7243L37.7036 34.6993C38.387 34.0343 38.387 32.9318 37.7036 32.2318ZM32.5786 35.0318L16.4178 18.4768C15.3757 19.2643 14.214 19.7368 13.0011 19.9118C10.6778 20.2618 8.23488 19.5443 6.45821 17.7243C4.83529 16.0793 4.08363 13.8743 4.20321 11.7043L9.48196 17.1118L16.7253 9.69178L11.4465 4.28428C13.5649 4.16178 15.7003 4.93178 17.3232 6.57678C19.1682 8.46678 19.8686 11.0743 19.4415 13.5068C19.2365 14.7493 18.724 15.9043 17.9382 16.9368L34.082 33.4743L32.5786 35.0318Z" fill="#404943"/>
</svg>
