<svg width="29" height="31" viewBox="0 0 29 31" fill="none" xmlns="http://www.w3.org/2000/svg">
<path d="M25.3385 16.9295C25.3968 16.4628 25.4406 15.9962 25.4406 15.5003C25.4406 15.0045 25.3968 14.5378 25.3385 14.0712L28.4156 11.6649C28.6926 11.4462 28.7656 11.0524 28.5906 10.7316L25.6739 5.68574C25.5426 5.45241 25.2947 5.32116 25.0322 5.32116C24.9447 5.32116 24.8572 5.33574 24.7843 5.36491L21.1531 6.82324C20.3947 6.23991 19.5781 5.75866 18.6885 5.39408L18.1343 1.52949C18.0906 1.17949 17.7843 0.916992 17.4197 0.916992H11.5864C11.2218 0.916992 10.9156 1.17949 10.8718 1.52949L10.3176 5.39408C9.42806 5.75866 8.61139 6.25449 7.85306 6.82324L4.22181 5.36491C4.13431 5.33574 4.04681 5.32116 3.95931 5.32116C3.7114 5.32116 3.46348 5.45241 3.33223 5.68574L0.415562 10.7316C0.225978 11.0524 0.313479 11.4462 0.590562 11.6649L3.66765 14.0712C3.60931 14.5378 3.56556 15.0191 3.56556 15.5003C3.56556 15.9816 3.60931 16.4628 3.66765 16.9295L0.590562 19.3357C0.313479 19.5545 0.240562 19.9482 0.415562 20.2691L3.33223 25.3149C3.46348 25.5482 3.7114 25.6795 3.9739 25.6795C4.0614 25.6795 4.1489 25.6649 4.22181 25.6357L7.85306 24.1774C8.61139 24.7607 9.42806 25.242 10.3176 25.6066L10.8718 29.4712C10.9156 29.8212 11.2218 30.0837 11.5864 30.0837H17.4197C17.7843 30.0837 18.0906 29.8212 18.1343 29.4712L18.6885 25.6066C19.5781 25.242 20.3947 24.7462 21.1531 24.1774L24.7843 25.6357C24.8718 25.6649 24.9593 25.6795 25.0468 25.6795C25.2947 25.6795 25.5426 25.5482 25.6739 25.3149L28.5906 20.2691C28.7656 19.9482 28.6926 19.5545 28.4156 19.3357L25.3385 16.9295ZM22.451 14.4357C22.5093 14.8878 22.5239 15.1941 22.5239 15.5003C22.5239 15.8066 22.4947 16.1274 22.451 16.5649L22.2468 18.2128L23.5447 19.2337L25.1197 20.4587L24.0989 22.2232L22.2468 21.4795L20.7301 20.867L19.4176 21.8587C18.7906 22.3253 18.1926 22.6753 17.5947 22.9232L16.0489 23.5503L15.8156 25.1982L15.5239 27.167H13.4822L12.9718 23.5503L11.426 22.9232C10.7989 22.6607 10.2156 22.3253 9.63223 21.8878L8.30515 20.867L6.75931 21.4941L4.90723 22.2378L3.88639 20.4732L5.4614 19.2482L6.75931 18.2274L6.55515 16.5795C6.5114 16.1274 6.48223 15.792 6.48223 15.5003C6.48223 15.2087 6.5114 14.8732 6.55515 14.4357L6.75931 12.7878L5.4614 11.767L3.88639 10.542L4.90723 8.77741L6.75931 9.52116L8.27598 10.1337L9.58848 9.14199C10.2156 8.67532 10.8135 8.32533 11.4114 8.07741L12.9572 7.45033L13.1906 5.80241L13.4822 3.83366H15.5093L16.0197 7.45033L17.5656 8.07741C18.1926 8.33991 18.776 8.67532 19.3593 9.11282L20.6864 10.1337L22.2322 9.50657L24.0843 8.76283L25.1051 10.5274L23.5447 11.767L22.2468 12.7878L22.451 14.4357ZM14.5031 9.66699C11.2801 9.66699 8.66973 12.2774 8.66973 15.5003C8.66973 18.7232 11.2801 21.3337 14.5031 21.3337C17.726 21.3337 20.3364 18.7232 20.3364 15.5003C20.3364 12.2774 17.726 9.66699 14.5031 9.66699ZM14.5031 18.417C12.8989 18.417 11.5864 17.1045 11.5864 15.5003C11.5864 13.8962 12.8989 12.5837 14.5031 12.5837C16.1072 12.5837 17.4197 13.8962 17.4197 15.5003C17.4197 17.1045 16.1072 18.417 14.5031 18.417Z" fill="white"/>
</svg>
