<svg width="29" height="30" viewBox="0 0 29 30" fill="none" xmlns="http://www.w3.org/2000/svg">
<path d="M25.3387 16.4295C25.3971 15.9628 25.4408 15.4962 25.4408 15.0003C25.4408 14.5045 25.3971 14.0378 25.3387 13.5712L28.4158 11.1649C28.6929 10.9462 28.7658 10.5524 28.5908 10.2316L25.6741 5.18574C25.5429 4.95241 25.295 4.82116 25.0325 4.82116C24.945 4.82116 24.8575 4.83574 24.7846 4.86491L21.1533 6.32324C20.395 5.73991 19.5783 5.25866 18.6887 4.89408L18.1346 1.02949C18.0908 0.679492 17.7846 0.416992 17.42 0.416992H11.5866C11.2221 0.416992 10.9158 0.679492 10.8721 1.02949L10.3179 4.89408C9.42831 5.25866 8.61164 5.75449 7.85331 6.32324L4.22206 4.86491C4.13456 4.83574 4.04706 4.82116 3.95956 4.82116C3.71164 4.82116 3.46372 4.95241 3.33247 5.18574L0.415806 10.2316C0.226222 10.5524 0.313723 10.9462 0.590806 11.1649L3.66789 13.5712C3.60956 14.0378 3.56581 14.5191 3.56581 15.0003C3.56581 15.4816 3.60956 15.9628 3.66789 16.4295L0.590806 18.8357C0.313723 19.0545 0.240806 19.4482 0.415806 19.7691L3.33247 24.8149C3.46372 25.0482 3.71164 25.1795 3.97414 25.1795C4.06164 25.1795 4.14914 25.1649 4.22206 25.1357L7.85331 23.6774C8.61164 24.2607 9.42831 24.742 10.3179 25.1066L10.8721 28.9712C10.9158 29.3212 11.2221 29.5837 11.5866 29.5837H17.42C17.7846 29.5837 18.0908 29.3212 18.1346 28.9712L18.6887 25.1066C19.5783 24.742 20.395 24.2462 21.1533 23.6774L24.7846 25.1357C24.8721 25.1649 24.9596 25.1795 25.0471 25.1795C25.295 25.1795 25.5429 25.0482 25.6741 24.8149L28.5908 19.7691C28.7658 19.4482 28.6929 19.0545 28.4158 18.8357L25.3387 16.4295ZM22.4512 13.9357C22.5096 14.3878 22.5241 14.6941 22.5241 15.0003C22.5241 15.3066 22.495 15.6274 22.4512 16.0649L22.2471 17.7128L23.545 18.7337L25.12 19.9587L24.0991 21.7232L22.2471 20.9795L20.7304 20.367L19.4179 21.3587C18.7908 21.8253 18.1929 22.1753 17.595 22.4232L16.0491 23.0503L15.8158 24.6982L15.5241 26.667H13.4825L12.9721 23.0503L11.4262 22.4232C10.7991 22.1607 10.2158 21.8253 9.63247 21.3878L8.30539 20.367L6.75956 20.9941L4.90747 21.7378L3.88664 19.9732L5.46164 18.7482L6.75956 17.7274L6.55539 16.0795C6.51164 15.6274 6.48247 15.292 6.48247 15.0003C6.48247 14.7087 6.51164 14.3732 6.55539 13.9357L6.75956 12.2878L5.46164 11.267L3.88664 10.042L4.90747 8.27741L6.75956 9.02116L8.27622 9.63366L9.58872 8.64199C10.2158 8.17532 10.8137 7.82533 11.4116 7.57741L12.9575 6.95033L13.1908 5.30241L13.4825 3.33366H15.5096L16.02 6.95033L17.5658 7.57741C18.1929 7.83991 18.7762 8.17532 19.3596 8.61282L20.6866 9.63366L22.2325 9.00657L24.0846 8.26283L25.1054 10.0274L23.545 11.267L22.2471 12.2878L22.4512 13.9357ZM14.5033 9.16699C11.2804 9.16699 8.66997 11.7774 8.66997 15.0003C8.66997 18.2232 11.2804 20.8337 14.5033 20.8337C17.7262 20.8337 20.3366 18.2232 20.3366 15.0003C20.3366 11.7774 17.7262 9.16699 14.5033 9.16699ZM14.5033 17.917C12.8991 17.917 11.5866 16.6045 11.5866 15.0003C11.5866 13.3962 12.8991 12.0837 14.5033 12.0837C16.1075 12.0837 17.42 13.3962 17.42 15.0003C17.42 16.6045 16.1075 17.917 14.5033 17.917Z" fill="#0D4D00"/>
</svg>
