<svg width="41" height="40" viewBox="0 0 41 40" fill="none" xmlns="http://www.w3.org/2000/svg">
<path d="M39.7688 32.2317L23.3376 16.3417C25.0205 12.2467 24.1519 7.41672 20.7317 4.09172C16.5696 0.0667174 10.0912 -0.300783 5.47674 2.95422L12.4256 9.69172L9.85598 12.1592L2.92519 5.45672C-0.440682 9.90172 -0.0606638 16.1842 4.10143 20.1917C7.4673 23.4467 12.3713 24.3042 16.5696 22.7817L33.0552 38.7242C33.7609 39.4067 34.901 39.4067 35.6067 38.7242L39.7688 34.6992C40.4926 34.0342 40.4926 32.9317 39.7688 32.2317ZM34.34 35.0317L17.2211 18.4767C16.1172 19.2642 14.8867 19.7367 13.6019 19.9117C11.1408 20.2617 8.55307 19.5442 6.67108 17.7242C4.95195 16.0792 4.15572 13.8742 4.28239 11.7042L9.87408 17.1117L17.5468 9.69172L11.9551 4.28422C14.199 4.16172 16.4611 4.93172 18.1802 6.57672C20.1346 8.46672 20.8765 11.0742 20.4241 13.5067C20.2069 14.7492 19.6641 15.9042 18.8316 16.9367L35.9324 33.4742L34.34 35.0317Z" fill="white"/>
</svg>
