<svg width="63" height="63" viewBox="0 0 63 63" fill="none" xmlns="http://www.w3.org/2000/svg">
<g filter="url(#filter0_d_854_52298)">
<path d="M4.10662 23.6427V23.7014C4.10662 23.7504 4.10662 23.7993 4.10662 23.8434V23.8727C4.10662 23.9021 4.10662 23.9266 4.10662 23.9608V24.0343V24.0685V24.1126C4.10662 24.2007 4.08227 24.2937 4.06765 24.3867L4.03843 24.6412C4.04057 24.6722 4.04057 24.7033 4.03843 24.7342C4.03843 24.8321 4.01407 24.9349 4.00433 25.0377C3.99459 25.1405 4.00433 25.1895 4.00433 25.2629V25.3363C4.00433 25.3657 4.00433 25.3951 4.00433 25.4293C4.00433 25.4636 4.00433 25.493 4.00433 25.5223C4.00673 25.5386 4.00673 25.5551 4.00433 25.5713C4.00433 25.5713 4.00433 25.6202 4.00433 25.6447V25.7769C4.00433 25.8797 4.00433 25.9874 4.00433 26.1146C4.00433 26.1685 4.00433 26.2223 4.00433 26.2762C4.00433 26.33 4.00433 26.3838 4.00433 26.4426V26.516C4.00433 26.5796 4.00433 26.6433 4.00433 26.702V26.9223C4.00433 27.0349 4.00433 27.1426 4.00433 27.2503C4.00192 27.2681 4.00192 27.2862 4.00433 27.3041V27.6859V28.2195C4.08656 33.4576 6.20075 38.4564 9.89653 42.1511C13.5923 45.8459 18.5776 47.9445 23.7904 48C24.6258 47.9995 25.4603 47.9472 26.2893 47.8434C26.6643 47.7944 27.0345 47.7406 27.4047 47.672C24.6505 46.0032 22.2771 43.7699 20.4392 41.1177C19.7663 40.1548 19.1702 39.14 18.6564 38.0828C18.5395 37.8479 18.4274 37.5933 18.3203 37.3681C18.3203 37.3681 18.2959 37.3192 18.2862 37.2898C17.0251 34.4296 16.3547 31.342 16.3155 28.2139C16.2763 25.0858 16.8692 21.9822 18.0582 19.091C19.2472 16.1998 21.0076 13.5811 23.2328 11.3935C25.4581 9.20577 28.102 7.49458 31.0044 6.36345C31.9917 5.96539 33.0058 5.63824 34.0391 5.38446C39.8143 4.02335 45.8893 4.95259 51 7.97879L50.8977 7.88578C50.8563 7.8409 50.8124 7.79841 50.7662 7.75852L50.7272 7.71936C50.6931 7.6802 50.6493 7.64593 50.6103 7.60677L50.4788 7.4844L50.284 7.29349L50.2158 7.23475L50.1865 7.20538L49.9722 7.01448L49.7384 6.80889L49.6605 6.74526C49.6069 6.69631 49.5582 6.65225 49.4997 6.6082L49.3926 6.51519L49.3341 6.46625L49.2903 6.43198H49.2659L49.0808 6.28024L48.9396 6.16765L48.4768 5.80543L48.3502 5.70753L48.2966 5.66837H48.2674L48.1797 5.59984L48.1456 5.57536L48.0287 5.48725H47.9897L47.9215 5.4383L47.8728 5.40404L47.7315 5.30614C47.7223 5.29533 47.7106 5.28693 47.6974 5.28166L47.3516 5.03692L47.1957 4.92923H47.1568L46.923 4.77259L46.8694 4.73832L46.504 4.40547L46.2459 4.24393L45.978 4.0824L45.8416 3.99429L45.7393 3.91597L45.6614 3.86702L45.6126 3.83765L45.4129 3.72507L45.3642 3.6957L45.3009 3.65654L45.1255 3.55374C44.7164 3.32857 44.3088 3.12299 43.9029 2.93698H43.8737L43.6058 2.80481L43.3671 2.69223C43.0895 2.56007 42.8264 2.44259 42.578 2.3349L42.3978 2.25658L42.2906 2.21252L42.1786 2.16357H42.125C41.8571 2.05588 41.6379 1.96777 41.4333 1.89435L41.3164 1.8454L41.029 1.66918C40.688 1.54681 40.3373 1.42443 39.9817 1.31185L39.7772 1.24822L39.5677 1.17969L39.4411 1.14053L39.0027 1.01326H38.9442H38.8565H38.8273C38.535 0.934938 38.2379 0.866408 37.9408 0.792984L37.4098 0.675505C37.1127 0.61187 36.8156 0.548236 36.5136 0.494391L36.1288 0.376912L35.778 0.323068L35.6222 0.298593L35.4273 0.269223C35.1107 0.225168 34.7892 0.186009 34.4531 0.151744C33.8442 0.0881093 33.2354 0.0440547 32.5924 0C32.2612 0 31.8958 0 31.5451 0C30.9557 0 30.3712 0 29.7818 0.0587395H29.5967C28.9489 0.102794 28.301 0.171324 27.6483 0.259433L27.3025 0.313278L4.10662 23.6329V23.6427Z" fill="url(#paint0_linear_854_52298)"/>
<path d="M58.8983 31.7494V31.7054V31.5883V31.5444C58.8983 31.4956 58.8983 31.4419 58.8983 31.3931V31.3248C58.9004 31.3086 58.9004 31.2922 58.8983 31.276L58.9226 31.1003V30.9832C58.9226 30.8661 58.9518 30.7587 58.9616 30.6513C58.9616 30.5488 58.9859 30.4512 58.9957 30.3536C59.0054 30.256 58.9957 30.1926 58.9957 30.1145V30.0413V29.8754V29.8363C58.9957 29.7631 58.9957 29.6948 58.9957 29.6265V29.5972C58.9957 29.4947 58.9957 29.3874 58.9957 29.2654C58.9957 29.158 58.9957 29.0506 58.9957 28.9482V28.831V28.5626C58.9957 28.4406 58.9957 28.3235 58.9957 28.2113V28.1429C58.9957 28.06 58.9957 27.977 58.9957 27.8941V27.3133V27.2401C58.9185 22.0145 56.8067 17.0259 53.1108 13.3381C49.4148 9.65041 44.4272 7.55544 39.2116 7.50001C37.9982 7.49912 36.7871 7.60691 35.5928 7.82209C40.7368 11.0011 44.4251 16.0811 45.8602 21.9635C47.2953 27.846 46.3618 34.058 43.2615 39.2562C40.1613 44.4544 35.1435 48.2209 29.2934 49.7413C23.4433 51.2616 17.231 50.4135 12 47.3804C12.0137 47.399 12.0301 47.4155 12.0487 47.4292L12.1072 47.4829L12.2387 47.6147C12.3117 47.6879 12.3994 47.7757 12.4871 47.8538L12.6575 48.0148L12.9644 48.293L13.1689 48.4687L13.2176 48.5077L13.4125 48.6785L13.4514 48.7127L13.6121 48.8444L13.768 48.9713L13.8946 49.0689C14.0407 49.1909 14.1966 49.3129 14.3525 49.4301C14.387 49.4534 14.4196 49.4795 14.4499 49.5081L14.5668 49.5911L14.6301 49.6399L14.669 49.6692L14.8541 49.8058L14.9126 49.8498L15.0051 49.9181L15.1464 50.0206L15.1951 50.0547L15.5457 50.2987L15.6967 50.4012H15.7357L15.8672 50.489L16.0036 50.5818L16.2179 50.7184L16.4322 50.8551H16.6075L16.9241 51.1576L17.0702 51.2455L17.3576 51.4114L17.5865 51.5383C17.9956 51.7725 18.4096 51.9921 18.8285 52.1971C18.921 52.241 19.0087 52.2898 19.1012 52.3289H19.1402L19.3983 52.4509C19.6613 52.5729 19.9292 52.6949 20.1922 52.8071L20.387 52.8901H20.4504L20.7134 52.9974C20.9277 53.0853 21.1566 53.178 21.4001 53.2658L21.6242 53.3537C21.9797 53.4854 22.3304 53.6026 22.6664 53.7099H22.6908L22.8954 53.7783L23.2022 53.871L23.2899 53.9003L23.66 54.0027L23.85 54.0564C24.6147 54.2663 25.3939 54.4371 26.1635 54.5737L26.4849 54.6323L26.8064 54.6811H26.8405L27.1619 54.7299C29.7471 55.09 32.3696 55.09 34.9548 54.7299C35.0571 54.7299 35.1593 54.7299 35.2616 54.686L58.8885 31.7884C58.8885 31.7884 58.8934 31.764 58.8983 31.7494Z" fill="url(#paint1_linear_854_52298)"/>
</g>
<defs>
<filter id="filter0_d_854_52298" x="0" y="0" width="63" height="63" filterUnits="userSpaceOnUse" color-interpolation-filters="sRGB">
<feFlood flood-opacity="0" result="BackgroundImageFix"/>
<feColorMatrix in="SourceAlpha" type="matrix" values="0 0 0 0 0 0 0 0 0 0 0 0 0 0 0 0 0 0 127 0" result="hardAlpha"/>
<feOffset dy="4"/>
<feGaussianBlur stdDeviation="2"/>
<feComposite in2="hardAlpha" operator="out"/>
<feColorMatrix type="matrix" values="0 0 0 0 0 0 0 0 0 0 0 0 0 0 0 0 0 0 0.25 0"/>
<feBlend mode="normal" in2="BackgroundImageFix" result="effect1_dropShadow_854_52298"/>
<feBlend mode="normal" in="SourceGraphic" in2="effect1_dropShadow_854_52298" result="shape"/>
</filter>
<linearGradient id="paint0_linear_854_52298" x1="3.78513" y1="24" x2="51" y2="24" gradientUnits="userSpaceOnUse">
<stop stop-color="#A57D24"/>
<stop offset="0.21" stop-color="#D8BE62"/>
<stop offset="0.33" stop-color="#F1DD80"/>
<stop offset="0.52" stop-color="#FBF2A8"/>
<stop offset="0.73" stop-color="#F1DD80"/>
<stop offset="1" stop-color="#A57D24"/>
</linearGradient>
<linearGradient id="paint1_linear_854_52298" x1="12" y1="31.4273" x2="59.21" y2="31.4273" gradientUnits="userSpaceOnUse">
<stop/>
<stop offset="0.21" stop-color="#D8BE62"/>
<stop offset="0.33" stop-color="#F1DD80"/>
<stop offset="0.52" stop-color="#FBF2A8"/>
<stop offset="0.73" stop-color="#F1DD80"/>
<stop offset="1" stop-color="#A57D24"/>
</linearGradient>
</defs>
</svg>
