<?xml version="1.0" standalone="no"?>
<!DOCTYPE svg PUBLIC "-//W3C//DTD SVG 20010904//EN"
 "http://www.w3.org/TR/2001/REC-SVG-20010904/DTD/svg10.dtd">
<svg version="1.0" xmlns="http://www.w3.org/2000/svg"
 width="225.000000pt" height="225.000000pt" viewBox="0 0 225.000000 225.000000"
 preserveAspectRatio="xMidYMid meet">

<g transform="translate(0.000000,225.000000) scale(0.100000,-0.100000)"
fill="#000000" stroke="none">
<path d="M952 2239 c-89 -14 -243 -64 -332 -109 -287 -145 -504 -414 -587
-727 -23 -86 -26 -119 -26 -263 -1 -176 8 -242 50 -368 166 -497 656 -816
1174 -764 464 46 844 361 973 806 176 606 -186 1241 -799 1401 -114 29 -341
42 -453 24z m443 -88 c93 -26 239 -93 322 -148 144 -95 277 -250 358 -417 85
-175 100 -244 99 -466 0 -172 -2 -191 -27 -275 -33 -109 -91 -233 -147 -315
-135 -198 -353 -355 -595 -426 -71 -21 -119 -27 -228 -31 -212 -8 -365 24
-537 113 -261 135 -447 364 -536 659 -26 83 -28 104 -28 275 -1 215 13 287 89
447 146 310 410 521 749 598 97 22 378 14 481 -14z"/>
<path d="M1069 1750 c-59 -10 -96 -30 -135 -72 -58 -60 -68 -92 -72 -220 -5
-149 16 -230 79 -302 l42 -47 -22 -23 c-33 -35 -105 -71 -202 -101 -137 -42
-168 -87 -169 -242 0 -105 8 -119 93 -158 39 -18 110 -44 157 -57 77 -21 105
-23 290 -23 194 1 210 2 295 28 133 41 213 81 225 112 14 36 13 169 -2 218
-17 56 -54 89 -134 116 -38 13 -97 39 -132 57 -34 19 -72 34 -83 34 -25 0 -35
-25 -18 -46 16 -19 144 -84 218 -110 29 -10 61 -29 71 -42 22 -27 35 -114 25
-171 -7 -40 -8 -41 -86 -71 -133 -51 -207 -63 -384 -64 -179 0 -278 18 -400
73 l-65 30 0 91 c0 110 11 126 116 160 103 34 184 76 230 121 40 39 42 40 120
42 66 2 87 7 127 30 55 32 100 95 122 171 23 76 20 242 -5 310 -44 117 -163
179 -301 156z m138 -75 c48 -20 70 -41 97 -90 18 -34 21 -56 20 -150 -1 -91
-5 -119 -23 -160 -40 -91 -88 -125 -177 -125 -131 0 -204 101 -204 285 0 130
37 203 120 239 45 20 121 20 167 1z"/>
</g>
</svg>
